<?xml version="1.0" encoding="UTF-8"?>
<svg version="1.1" xmlns="http://www.w3.org/2000/svg" width="1024" height="1024">
<path d="M0 0 C337.92 0 675.84 0 1024 0 C1024 337.92 1024 675.84 1024 1024 C686.08 1024 348.16 1024 0 1024 C0 686.08 0 348.16 0 0 Z " fill="#FAFEFE" transform="translate(0,0)"/>
<path d="M0 0 C0.88459431 -0.00235223 1.76918862 -0.00470446 2.68058881 -0.00712797 C5.65978806 -0.01381178 8.63894364 -0.01335993 11.61814976 -0.01294994 C13.7697586 -0.01624896 15.92136683 -0.0199746 18.07297426 -0.02409142 C23.99767295 -0.03411536 29.92236151 -0.03782886 35.84706748 -0.04048073 C42.23245113 -0.04438263 48.61782676 -0.05396108 55.0032053 -0.0626936 C69.70104736 -0.08152713 84.39888918 -0.09171478 99.0967404 -0.10015428 C106.36168466 -0.10436189 113.6266281 -0.10958376 120.89157166 -0.11483881 C145.7655345 -0.13272939 170.63949757 -0.14772453 195.51346588 -0.155159 C197.07494387 -0.15563375 198.63642186 -0.15610964 200.19789985 -0.15658666 C200.97224504 -0.15682303 201.74659024 -0.15705941 202.54440044 -0.15730295 C206.4675482 -0.15850413 210.39069597 -0.15971959 214.31384373 -0.16094494 C215.48168023 -0.16130516 215.48168023 -0.16130516 216.67310939 -0.16167267 C241.90830609 -0.16956327 267.14345575 -0.19298997 292.37863191 -0.22550088 C319.06504283 -0.2598186 345.75142624 -0.27951198 372.43785959 -0.28280324 C375.36897442 -0.28322077 378.30008923 -0.28370033 381.23120403 -0.28422642 C382.31377095 -0.28441121 382.31377095 -0.28441121 383.4182079 -0.28459973 C395.02044024 -0.28692942 406.62261785 -0.3025766 418.2248307 -0.32306826 C429.89368541 -0.34335017 441.56245917 -0.34845966 453.23132991 -0.33929763 C459.54997264 -0.33475203 465.8684381 -0.33665465 472.18705654 -0.35605907 C477.97643046 -0.37368443 483.76549769 -0.37269772 489.55487484 -0.35716178 C491.6444664 -0.3547848 493.73407916 -0.3591139 495.82363831 -0.37099043 C514.85317966 -0.47241238 530.53259432 2.24304244 545.01770115 15.67328358 C551.91369864 23.25527035 557.14051643 32.04798154 559.2559824 42.13422108 C559.42737304 42.75838069 559.59876369 43.3825403 559.77534799 44.02561384 C560.57824342 47.54802317 560.39515073 51.13402046 560.38741016 54.72954273 C560.39048911 56.0505371 560.39048911 56.0505371 560.39363027 57.39821821 C560.39931644 60.37004749 560.39784102 63.34183066 560.39642429 66.31366444 C560.39900701 68.45758588 560.40201991 70.60150684 560.40542769 72.74542713 C560.4135121 78.65344472 560.41528807 84.56145018 560.41602516 90.46947265 C560.41787325 96.83506615 560.42541941 103.20065332 560.43216038 109.56624317 C560.44646429 124.22061714 560.45227194 138.87498863 560.45685232 153.52936837 C560.45918801 160.7714916 560.46279066 168.01361405 560.4665477 175.25573666 C560.47938452 200.04745506 560.49010294 224.83917301 560.4935503 249.63089466 C560.49377193 251.18742621 560.49399372 252.74395776 560.49421565 254.30048931 C560.49443629 255.86078223 560.49465678 257.42107515 560.4948771 258.98136806 C560.49531965 262.11158339 560.49576677 265.24179872 560.49621677 268.37201405 C560.49632616 269.14812643 560.49643556 269.92423882 560.49654826 270.72386977 C560.50017794 295.88271622 560.51609397 321.04153384 560.53940714 346.20036925 C560.56401105 372.8008047 560.57772343 399.40122368 560.57891822 426.00167084 C560.57908967 428.92265479 560.5793051 431.84363874 560.57955265 434.76462269 C560.57960842 435.48384901 560.57966419 436.20307533 560.57972165 436.94409639 C560.5808717 448.51236331 560.59188994 460.08060063 560.60643971 471.64885756 C560.62081639 483.2808243 560.6237829 494.91274441 560.61599973 506.54471856 C560.61209143 512.84484919 560.61303172 519.14488034 560.62705708 525.44499874 C560.63978507 531.21514392 560.63860796 536.98511474 560.62646636 542.75525963 C560.62450746 544.84013283 560.6275967 546.92501832 560.63631073 549.00987422 C560.70922383 567.63744225 558.60913426 584.16805262 545.18957615 598.36468983 C533.48556243 609.07563571 519.76115581 614.47119297 504.01139355 614.39148998 C503.12128507 614.39499606 502.2311766 614.39850213 501.31409514 614.40211445 C498.34020355 614.41139661 495.36650916 614.40651336 492.3926096 614.40164661 C490.23540951 614.40538446 488.07821078 614.40998652 485.92101419 614.41537726 C479.99954644 614.42760574 474.07813519 614.42734697 468.1566577 614.42498851 C461.76798889 614.42458031 455.3793382 614.43561967 448.99067783 614.44510365 C436.477219 614.46171312 423.96377961 614.46723907 411.45031072 614.4683284 C401.27994491 614.46924797 391.10958521 614.47336719 380.93922138 614.47972965 C378.01025562 614.48152477 375.08128985 614.4833044 372.15232408 614.48507941 C371.42415136 614.4855215 370.69597865 614.4859636 369.94574009 614.48641909 C349.46867293 614.49872438 328.99160788 614.50662052 308.51453686 614.50573254 C307.3568903 614.5056858 307.3568903 614.5056858 306.17585695 614.50563812 C302.2643467 614.50547191 298.35283646 614.50527383 294.44132622 614.5050687 C293.664503 614.50502881 292.88767978 614.50498892 292.08731647 614.50494782 C290.51639194 614.50486695 288.94546741 614.50478335 287.37454288 614.50469704 C262.93005102 614.50347136 238.48561463 614.51848916 214.04113865 614.54584217 C186.5704725 614.57656887 159.0998428 614.59377436 131.62915838 614.59191573 C128.6995639 614.59176647 125.76996943 614.59166905 122.84037495 614.59160709 C122.1190474 614.59158379 121.39771986 614.59156048 120.6545339 614.59153646 C109.05193281 614.59147494 97.44937993 614.60424063 85.84679317 614.62147162 C74.18519513 614.63843204 62.52368331 614.64005577 50.86207797 614.62725298 C44.54580789 614.62071553 38.22971238 614.62063455 31.91345882 614.63795948 C26.12994686 614.65366009 20.34674833 614.65085703 14.56324415 614.63339122 C12.47248199 614.63031476 10.3816966 614.63397793 8.29096182 614.64511137 C-11.66613986 614.74433628 -11.66613986 614.74433628 -20.7440176 610.13422108 C-21.94382733 609.56718403 -21.94382733 609.56718403 -23.16787565 608.98869169 C-36.28343344 602.59864321 -46.28559025 590.46708614 -51.55777323 577.06573772 C-54.73699925 567.29211509 -54.1604274 557.22292662 -54.12496853 547.06830311 C-54.12842764 544.91350092 -54.13319391 542.7587005 -54.13915026 540.60390377 C-54.15165497 534.69832346 -54.14549218 528.7928889 -54.13619161 522.88730812 C-54.12939935 516.51230674 -54.13988324 510.13733029 -54.14813137 503.76233387 C-54.1606985 492.00094626 -54.15961222 480.2396104 -54.15139697 468.47822028 C-54.1438445 457.61210442 -54.1418829 446.74600553 -54.1454649 435.87988758 C-54.14569405 435.15856707 -54.14592321 434.43724656 -54.14615931 433.69406785 C-54.14709335 430.76584945 -54.14804856 427.83763107 -54.1490386 424.90941269 C-54.15821159 397.45139478 -54.14990158 369.99340638 -54.13374791 342.53539303 C-54.11951154 318.1510022 -54.12078544 293.76665837 -54.13513088 269.38226795 C-54.15120156 241.97384578 -54.15756099 214.56544966 -54.14829409 187.15702343 C-54.14733197 184.23420048 -54.14639344 181.31137753 -54.1454649 178.38855457 C-54.14522767 177.66890318 -54.14499043 176.94925179 -54.14474601 176.20779277 C-54.14133639 165.34962321 -54.1453192 154.4914725 -54.15290356 143.63330555 C-54.16148609 131.28466742 -54.1590383 118.93609268 -54.14306132 106.58746004 C-54.13517873 100.28740986 -54.13208697 93.98745505 -54.14200878 87.68740559 C-54.15095619 81.91881711 -54.14602179 76.15041231 -54.13007613 70.38184047 C-54.12672856 68.29652486 -54.12842182 66.21119369 -54.13570349 64.12588811 C-54.19927 44.40729449 -51.17700114 28.71599826 -36.7440176 14.13422108 C-25.75359369 4.7582696 -14.39560075 -0.02598458 0 0 Z " fill="#303A8D" transform="translate(258.7440176010132,204.86577892303467)"/>
<path d="M0 0 C37.558125 -0.12375 37.558125 -0.12375 75.875 -0.25 C83.73038574 -0.28641602 91.58577148 -0.32283203 99.67919922 -0.36035156 C109.40063477 -0.37841797 109.40063477 -0.37841797 113.97659302 -0.3817749 C117.11806955 -0.38544571 120.25926538 -0.40020583 123.40066528 -0.42230225 C148.847407 -0.5932484 173.75045383 0.39047121 198 9 C198.62874023 9.21881836 199.25748047 9.43763672 199.90527344 9.66308594 C214.24393162 14.7424358 227.55967051 21.92626277 239 32 C239.81726563 32.68578125 240.63453125 33.3715625 241.4765625 34.078125 C259.06798605 49.21873103 270.58040577 69.12391653 277.3125 91.125 C277.55500488 91.91140869 277.79750977 92.69781738 278.04736328 93.50805664 C281.48122339 105.3105857 282.32919371 116.95326753 282.26074219 129.1652832 C282.25002872 131.43142541 282.26069962 133.69677237 282.2734375 135.96289062 C282.28872183 149.18617354 280.83127352 161.7022308 276.875 174.375 C276.41758423 175.85190308 276.41758423 175.85190308 275.95092773 177.35864258 C269.74442658 196.68017484 259.23648523 212.63905323 245 227 C244.19820312 227.8146875 243.39640625 228.629375 242.5703125 229.46875 C220.86922471 250.21995853 191.09947701 259.31469935 162 263 C160.22342766 263.25307419 160.22342766 263.25307419 158.41096497 263.51126099 C153.96235103 264.064052 149.58352776 264.13404124 145.10546875 264.11352539 C143.83087547 264.11374443 143.83087547 264.11374443 142.53053284 264.1139679 C139.74949502 264.11327672 136.96852597 264.10552192 134.1875 264.09765625 C132.24837277 264.09578924 130.30924506 264.09436667 128.37011719 264.09336853 C123.28699421 264.08956564 118.20390018 264.07975454 113.12078857 264.06866455 C107.92558178 264.05840236 102.73037027 264.05386064 97.53515625 264.04882812 C87.35675817 264.03813013 77.1783815 264.02108068 67 264 C68.4369079 260.99922964 69.83583981 258.93368254 72.23046875 256.609375 C73.18179688 255.67544922 73.18179688 255.67544922 74.15234375 254.72265625 C74.82394531 254.07167969 75.49554688 253.42070313 76.1875 252.75 C77.56826164 251.39250962 78.94719721 250.03315915 80.32421875 248.671875 C80.94385498 248.0644043 81.56349121 247.45693359 82.2019043 246.83105469 C84.59299671 244.39613369 86.80269772 241.82804646 89 239.21875 C92.66647332 235.15125616 96.62145732 231.36030219 100.51147461 227.50805664 C104.3070619 223.73524003 107.99563451 219.93571133 111.41015625 215.80859375 C111.93480469 215.21175781 112.45945312 214.61492187 113 214 C113.70898438 212.95457031 114.41796875 211.90914062 115.1484375 210.83203125 C119.44132633 206.59064916 125.32980541 207.24325325 130.97851562 207.21484375 C132.50652187 207.22495976 134.03451827 207.23668638 135.5625 207.25 C138.54312659 207.24806808 141.52340618 207.23012996 144.50390625 207.203125 C145.59398483 207.19411415 145.59398483 207.19411415 146.70608521 207.18492126 C156.22181247 207.04056462 165.52772117 205.67298505 174.5 202.4375 C175.56710205 202.05549438 175.56710205 202.05549438 176.65576172 201.66577148 C193.51772865 195.24764992 205.32003671 182.70449845 212.6875 166.4375 C221.46611659 143.85145665 221.35677579 120.32389731 212.8125 97.6875 C205.07236602 80.62133304 192.03819954 68.39194482 174.5625 61.6796875 C164.94260075 58.61674788 155.51801598 56.70761652 145.41943359 56.68115234 C144.52064484 56.67110672 143.62185608 56.6610611 142.6958313 56.65071106 C139.76337245 56.62014046 136.83100374 56.6029174 133.8984375 56.5859375 C131.85005939 56.56720478 129.80168882 56.54762983 127.75332642 56.5272522 C122.39081288 56.47614721 117.02827439 56.43640628 111.66564941 56.39910889 C106.18198584 56.35893292 100.69842414 56.30790288 95.21484375 56.2578125 C84.4766343 56.16130966 73.73836702 56.07682358 63 56 C63.03330917 57.30497437 63.06661835 58.60994873 63.10093689 59.95446777 C63.40627821 72.31032935 63.63046005 84.66541668 63.77718258 97.02420807 C63.85515773 103.37696199 63.96073113 109.72664832 64.1315918 116.07763672 C64.29573993 122.21822253 64.38449638 128.35587748 64.42315865 134.49848938 C64.45067242 136.83024717 64.50440483 139.16186149 64.58595085 141.49235535 C65.26164423 161.62119338 65.26164423 161.62119338 57.76126194 170.17992401 C55.20374708 172.76714381 52.55928731 175.18727439 49.76443672 177.51528931 C47.45159666 179.46146189 45.36959556 181.59879749 43.28125 183.78125 C42.02365367 185.02369456 40.76341169 186.26346941 39.5 187.5 C35.05299575 191.85698392 30.8293566 196.29857519 26.76367188 201.01367188 C23.82389687 204.32458126 20.66040361 207.40155715 17.5 210.5 C12.90291943 215.0424071 8.40313303 219.58166865 4.296875 224.58203125 C3 226 3 226 0 228 C0 152.76 0 77.52 0 0 Z " fill="#F1F5FC" transform="translate(371,323)"/>
<path d="M0 0 C-10.55790511 61.52480285 -10.55790511 61.52480285 -16 91 C-21.26507815 87.23367805 -25.99952021 83.27473039 -30.5 78.625 C-31.304375 77.80708984 -31.304375 77.80708984 -32.125 76.97265625 C-33.4214176 75.65308834 -34.71142743 74.32722975 -36 73 C-39.57191639 74.48298314 -41.50306904 76.4524558 -44 79.375 C-48.01715472 83.96224599 -52.20941669 88.28505682 -56.57421875 92.53662109 C-59.30100801 95.21604447 -61.87157302 97.97001239 -64.3671875 100.8671875 C-68.66967584 105.8397645 -73.34763443 110.39844603 -78.0390625 115 C-81.29629978 118.21950866 -84.45170806 121.46324901 -87.4375 124.9375 C-92.10086745 130.35165903 -97.23626574 135.28263712 -102.328125 140.2890625 C-106.52735196 144.4454402 -110.53214156 148.67953684 -114.3828125 153.16015625 C-116.79556767 155.90510235 -119.38442093 158.45021077 -122 161 C-125.22410164 164.18055276 -128.39076882 167.34719093 -131.3125 170.8125 C-135.42432439 175.65531539 -140.00939023 180.03347737 -144.51953125 184.5 C-148.29407072 188.25198247 -151.91310088 192.05362381 -155.33984375 196.12890625 C-157.40701845 198.45873374 -159.63544062 200.58566246 -161.875 202.75 C-170.28995235 211.10100894 -176.69245289 220.4265336 -182 231 C-182.33 231 -182.66 231 -183 231 C-183.0768728 224.01154737 -183.1289403 217.02320611 -183.16479492 210.03442383 C-183.17976238 207.66328863 -183.2001436 205.29218054 -183.22631836 202.92114258 C-183.5336948 174.33513316 -179.24164844 154.28614632 -159 133 C-157.23138181 131.21303515 -155.44633436 129.44504032 -153.65234375 127.68359375 C-151.99483553 125.99473786 -150.46748575 124.24219641 -148.9375 122.4375 C-144.95314313 117.80263588 -140.60276504 113.54794721 -136.23803711 109.27514648 C-133.24963667 106.33040297 -130.38957757 103.34037027 -127.65625 100.15625 C-122.76088306 94.48505481 -117.36328709 89.31805348 -112.02734375 84.06640625 C-107.69409964 79.77489483 -103.54061541 75.41839403 -99.56835938 70.79101562 C-97.3265143 68.23090114 -94.93499018 65.87769629 -92.5 63.5 C-88.74506949 59.80128485 -85.1891682 56.00256465 -81.76953125 51.9921875 C-78.36077141 48.15451086 -74.66540671 44.59060249 -71 41 C-75.18152716 35.82811115 -79.69988423 31.4638482 -84.73046875 27.11328125 C-86.79029766 25.195265 -88.4015421 23.30656954 -90 21 C-86.03765728 19.63415759 -82.09272625 18.46918188 -78.01953125 17.484375 C-76.86928467 17.20585693 -75.71903809 16.92733887 -74.53393555 16.64038086 C-73.30586182 16.34655518 -72.07778809 16.05272949 -70.8125 15.75 C-68.88821167 15.28702515 -68.88821167 15.28702515 -66.92504883 14.81469727 C-57.26411802 12.49995744 -47.57429946 10.33079562 -37.86816406 8.21337891 C-29.03347612 6.27089866 -20.26249123 4.11371861 -11.51049805 1.82788086 C-10.58019775 1.5881958 -9.64989746 1.34851074 -8.69140625 1.1015625 C-7.87873291 0.88838379 -7.06605957 0.67520508 -6.22875977 0.45556641 C-4 0 -4 0 0 0 Z " fill="#EAF0FC" transform="translate(553,413)"/>
<path d="M0 0 C0 36.63 0 73.26 0 111 C-20.79 111 -41.58 111 -63 111 C-63 82.12419713 -58.25224859 59.95156846 -37.9609375 38.8828125 C-36.619121 37.55135752 -35.27019924 36.22702262 -33.9140625 34.91015625 C-32.11077435 33.11054828 -30.45904468 31.25509828 -28.8125 29.3125 C-25.03176404 24.90598705 -20.90443885 20.87715444 -16.77880859 16.79833984 C-13.1445179 13.18938257 -9.68638225 9.49015833 -6.36328125 5.58984375 C-1.57002457 0 -1.57002457 0 0 0 Z " fill="#DBE5FB" transform="translate(434,590)"/>
<path d="M0 0 C2.06787115 0.00066103 4.1357423 0.00130355 6.20361346 0.00194407 C40.42657735 0.01266585 74.64953301 0.03230355 108.87248486 0.06315851 C103.14559082 3.24476631 97.51492824 3.20664378 91.08936089 3.18620634 C90.20057223 3.18736019 89.31178358 3.18851403 88.39606193 3.18970284 C85.40272588 3.1923604 82.40944307 3.18785437 79.41610974 3.18341303 C77.25452374 3.18384891 75.0929378 3.18472412 72.93135214 3.18600219 C66.97961907 3.18824391 61.02790391 3.18423025 55.07617313 3.17922413 C48.66243149 3.17491521 42.24869091 3.17636637 35.83494824 3.17712641 C24.71875199 3.17765136 13.60256168 3.17454237 2.48636693 3.16888857 C-9.17345264 3.16297347 -20.83326987 3.15912301 -32.49309093 3.15803576 C-33.58016443 3.15793265 -33.58016443 3.15793265 -34.68919901 3.15782745 C-38.36959771 3.15748912 -42.0499964 3.15718774 -45.7303951 3.15690058 C-71.80507147 3.15479964 -97.87974479 3.1480608 -123.95441943 3.13859797 C-149.28710156 3.12941501 -174.61978285 3.12233067 -199.95246631 3.11809015 C-200.73319992 3.11795863 -201.51393353 3.1178271 -202.31832574 3.11769159 C-210.15870579 3.11637308 -217.99908585 3.11509726 -225.83946592 3.11385273 C-241.81151488 3.11131645 -257.78356379 3.1084952 -273.75561267 3.10550165 C-274.85718906 3.10529572 -274.85718906 3.10529572 -275.98101951 3.10508562 C-325.02985268 3.09588349 -374.07868406 3.08001733 -423.12751514 3.06315851 C-423.12751514 2.40315851 -423.12751514 1.74315851 -423.12751514 1.06315851 C-381.94817665 0.89047277 -340.7688038 0.7273959 -299.58939588 0.57220286 C-297.19839523 0.5631901 -294.80739464 0.55416153 -292.41639405 0.54513264 C-213.23432582 0.24643712 -134.05271552 0.00966038 0 0 Z " fill="#333A73" transform="translate(672.1275151371956,815.9368414878845)"/>
<path d="M0 0 C0 74.91 0 149.82 0 227 C-0.66 227 -1.32 227 -2 227 C-3.02773767 221.92291339 -3.13815339 217.07904355 -3.12025452 211.92642212 C-3.12110894 211.02291405 -3.12196337 210.11940598 -3.12284368 209.18851888 C-3.12448828 206.16683735 -3.1189938 203.14521156 -3.11352539 200.12353516 C-3.11324327 197.95519004 -3.11340173 195.78684482 -3.1139679 193.61849976 C-3.11425491 187.73473682 -3.10837361 181.85099425 -3.10139394 175.96723604 C-3.09514449 169.81730026 -3.09455534 163.66736401 -3.09336853 157.51742554 C-3.09025992 145.8728508 -3.08205284 134.22828545 -3.07201904 122.58371484 C-3.06084334 109.32627175 -3.05534378 96.06882821 -3.05032361 82.81138158 C-3.03986985 55.54091585 -3.02227948 28.27045845 -3 1 C-1 0 -1 0 0 0 Z " fill="#384079" transform="translate(371,323)"/>
<path d="M0 0 C30.36 0 60.72 0 92 0 C92 0.66 92 1.32 92 2 C62.3 2 32.6 2 2 2 C1.67 36.65 1.34 71.3 1 107 C0.67 107 0.34 107 0 107 C0 71.69 0 36.38 0 0 Z " fill="#394075" transform="translate(434,379)"/>
<path d="M0 0 C1.32 0.66 2.64 1.32 4 2 C1.55493617 4.64881915 -1.03877803 6.81688487 -3.9375 8.9375 C-9.9940837 13.03587258 -9.9940837 13.03587258 -13.5 19.0625 C-14.29668385 22.14964993 -16.45747589 23.24444764 -19 25 C-19.99 25.33 -20.98 25.66 -22 26 C-22.9590625 27.6396875 -22.9590625 27.6396875 -23.9375 29.3125 C-26.84718596 34.27608194 -30.78614006 38.00238061 -34.89819336 41.9621582 C-37.82221705 44.69086521 -37.82221705 44.69086521 -40 48 C-40.78375 48.2475 -41.5675 48.495 -42.375 48.75 C-45.89486037 50.42612399 -46.38554857 52.55094466 -48 56 C-49.485 56.495 -49.485 56.495 -51 57 C-51.12375 57.58652344 -51.2475 58.17304687 -51.375 58.77734375 C-52.30190348 62.07364425 -54.41095565 63.38902669 -57 65.5625 C-60.87876706 68.67017628 -60.87876706 68.67017628 -63 73 C-65.60242414 74.64820195 -66.86248779 75 -70 75 C-68.49158187 71.44519997 -66.42366339 69.20440378 -63.67578125 66.515625 C-62.37930664 65.23558594 -62.37930664 65.23558594 -61.05664062 63.9296875 C-60.15107422 63.04539062 -59.24550781 62.16109375 -58.3125 61.25 C-52.91044793 55.95402459 -47.6167586 50.66909126 -42.69604492 44.92089844 C-39.0036246 40.73895471 -34.94162373 36.90442787 -30.9609375 33 C-27.02266023 29.10733984 -23.30556335 25.11026343 -19.69238281 20.91503906 C-17.05478644 17.93043059 -14.22412374 15.15596289 -11.375 12.375 C-7.32534122 8.42085204 -3.55868399 4.40535973 0 0 Z " fill="#373E7C" transform="translate(515,485)"/>
<path d="M0 0 C0.99 0.33 1.98 0.66 3 1 C3 1.66 3 2.32 3 3 C1.34638199 4.29118119 -0.40215408 5.36907417 -2.17578125 6.48828125 C-4.15322803 7.95533602 -4.15322803 7.95533602 -5.41796875 10.37890625 C-7.24810231 13.41105346 -9.32814452 15.31098231 -12 17.625 C-15.44169838 20.59670862 -15.44169838 20.59670862 -18.6875 23.7734375 C-20 25 -20 25 -22 25 C-22.33 26.32 -22.66 27.64 -23 29 C-23.99 29 -24.98 29 -26 29 C-26.185625 29.886875 -26.37125 30.77375 -26.5625 31.6875 C-28.23014029 35.53032328 -29.80106126 36.65898234 -33.24609375 38.82421875 C-35.07095087 40.04756395 -36.49662888 41.40467957 -38 43 C-38.495 41.515 -38.495 41.515 -39 40 C-38.46109131 39.46632813 -37.92218262 38.93265625 -37.36694336 38.3828125 C-34.88773764 35.92460574 -32.41260401 33.46233634 -29.9375 31 C-29.08994141 30.16082031 -28.24238281 29.32164062 -27.36914062 28.45703125 C-22.95378187 24.05872021 -18.70477283 19.59980455 -14.64624023 14.87109375 C-11.92311474 11.77602719 -8.99817648 8.89186041 -6.0625 6 C-5.17981445 5.12408203 -5.17981445 5.12408203 -4.27929688 4.23046875 C-2.85520207 2.81795195 -1.4279475 1.4086219 0 0 Z " fill="#363C7B" transform="translate(443,561)"/>
<path d="M0 0 C0.66 0.33 1.32 0.66 2 1 C1.45758101 4.31928039 0.02144597 6.78052978 -1.73022461 9.61889648 C-9.85216175 22.79757771 -12.07474283 36.32872857 -12.31640625 51.62109375 C-12.33718735 52.72099136 -12.35796844 53.82088898 -12.37937927 54.95411682 C-12.4444742 58.4485177 -12.50357269 61.94299021 -12.5625 65.4375 C-12.60572335 67.81446037 -12.64933883 70.19141364 -12.69335938 72.56835938 C-12.80011428 78.37883175 -12.90195321 84.1893745 -13 90 C-13.33 90 -13.66 90 -14 90 C-14.21992082 82.33243278 -14.41457235 74.66451595 -14.59204102 66.99584961 C-14.65529283 64.3895837 -14.72423262 61.78344914 -14.79907227 59.17749023 C-14.90592359 55.42191708 -14.99200609 51.66633989 -15.07421875 47.91015625 C-15.11157639 46.75354996 -15.14893402 45.59694366 -15.18742371 44.4052887 C-15.29694528 38.45269154 -14.97506102 33.52343343 -12.76960754 27.96043396 C-11.50037512 24.72729731 -10.79792404 21.37583248 -10 18 C-9.34 18 -8.68 18 -8 18 C-7.34 15.36 -6.68 12.72 -6 10 C-5.34 10 -4.68 10 -4 10 C-3.7834375 8.576875 -3.7834375 8.576875 -3.5625 7.125 C-3 4 -3 4 -2 2 C-1.34 2 -0.68 2 0 2 C0 1.34 0 0.68 0 0 Z " fill="#313977" transform="translate(383,553)"/>
<path d="M0 0 C3.4572802 1.7286401 5.73247966 3.68918963 8.1796875 6.62109375 C8.71062012 7.25329834 9.24155273 7.88550293 9.78857422 8.53686523 C10.18834473 9.01969971 10.58811523 9.50253418 11 10 C10.37339478 10.61875 10.37339478 10.61875 9.73413086 11.25 C-0.29597529 21.03126739 -0.29597529 21.03126739 -9.60546875 31.484375 C-11.23911512 33.25987862 -13.03737382 34.60472828 -15 36 C-14.47470631 31.8911959 -13.33192009 29.74480159 -10.5625 26.6875 C-9.94503906 25.99011719 -9.32757813 25.29273438 -8.69140625 24.57421875 C-7 23 -7 23 -5 23 C-5 22.34 -5 21.68 -5 21 C-4.195625 20.731875 -3.39125 20.46375 -2.5625 20.1875 C-1.716875 19.795625 -0.87125 19.40375 0 19 C0.33 18.01 0.66 17.02 1 16 C1.66 16 2.32 16 3 16 C3 15.34 3 14.68 3 14 C5 12.375 5 12.375 7 11 C5.85455505 8.08432196 4.89364122 6.91643239 2.375 4.9375 C1.59125 4.298125 0.8075 3.65875 0 3 C0 2.01 0 1.02 0 0 Z " fill="#363E78" transform="translate(472,444)"/>
<path d="M0 0 C0 3 0 3 -1.64453125 4.8671875 C-2.35996094 5.52976562 -3.07539063 6.19234375 -3.8125 6.875 C-6.80436314 9.74571375 -9.01117631 12.33637742 -11 16 C-12.5625 17.8125 -12.5625 17.8125 -14 19 C-14.66 19 -15.32 19 -16 19 C-16.020625 19.804375 -16.04125 20.60875 -16.0625 21.4375 C-17.39960879 26.51851341 -20.37644272 30.23417835 -24 34 C-24.66 34 -25.32 34 -26 34 C-26.33 34.66 -26.66 35.32 -27 36 C-24.80875988 21.51203592 -9.895393 9.82071078 0 0 Z " fill="#353D79" transform="translate(399,607)"/>
<path d="M0 0 C0.99 0.33 1.98 0.66 3 1 C-1.38442526 6.25174926 -6.00842093 11.13222473 -10.875 15.9375 C-11.56335938 16.62134766 -12.25171875 17.30519531 -12.9609375 18.00976562 C-14.63833511 19.67551464 -16.31803791 21.3388622 -18 23 C-18.99 21.68 -19.98 20.36 -21 19 C-19 17 -19 17 -16.625 16.1875 C-13.401299 14.72915907 -12.11867257 12.77619164 -10 10 C-9.34 10 -8.68 10 -8 10 C-7.938125 9.4225 -7.87625 8.845 -7.8125 8.25 C-6.66615826 5.07551517 -4.74043158 3.87151425 -2 2 C-1.34 2 -0.68 2 0 2 C0 1.34 0 0.68 0 0 Z " fill="#2E3779" transform="translate(475,543)"/>
<path d="M0 0 C0.66 0.99 1.32 1.98 2 3 C1.01 3.495 1.01 3.495 0 4 C-0.268125 4.825 -0.53625 5.65 -0.8125 6.5 C-1.204375 7.325 -1.59625 8.15 -2 9 C-4.625 9.8125 -4.625 9.8125 -7 10 C-7.0825 10.61875 -7.165 11.2375 -7.25 11.875 C-8 14 -8 14 -9.75 14.9375 C-10.4925 15.288125 -11.235 15.63875 -12 16 C-16.86423124 20.48021299 -21.33029604 25.49544407 -25 31 C-25.66 31 -26.32 31 -27 31 C-26.42149623 27.46675175 -25.20353355 25.85482306 -22.6484375 23.390625 C-21.61783203 22.38128906 -21.61783203 22.38128906 -20.56640625 21.3515625 C-19.84324219 20.65804687 -19.12007813 19.96453125 -18.375 19.25 C-13.54923754 14.57532034 -8.88838683 9.87073804 -4.52978516 4.75292969 C-3.08199846 3.0939593 -1.57553166 1.53713288 0 0 Z " fill="#313971" transform="translate(411,509)"/>
<path d="M0 0 C0.33 0.66 0.66 1.32 1 2 C0.67 2.66 0.34 3.32 0 4 C-0.66 4 -1.32 4 -2 4 C-2 5.32 -2 6.64 -2 8 C-4.26296986 10.13724932 -6.38748349 11.70249198 -9.1875 13.0625 C-11.34509852 13.99309803 -11.34509852 13.99309803 -13 17 C-13.66 17 -14.32 17 -15 17 C-15.25007812 17.61230469 -15.50015625 18.22460938 -15.7578125 18.85546875 C-17.20696849 21.35731353 -18.30416589 22.05618673 -20.875 23.3125 C-21.55304687 23.65925781 -22.23109375 24.00601563 -22.9296875 24.36328125 C-25.35737246 25.10990889 -26.63265545 24.82273185 -29 24 C-28.27296875 23.55011719 -27.5459375 23.10023438 -26.796875 22.63671875 C-16.71638613 16.18779061 -8.41805321 8.4791643 0 0 Z " fill="#323977" transform="translate(624,541)"/>
<path d="M0 0 C0.99 0 1.98 0 3 0 C1.5880147 3.22331998 -0.09890436 5.3144815 -2.625 7.75 C-3.68460937 8.78640625 -3.68460937 8.78640625 -4.765625 9.84375 C-7 12 -7 12 -9.234375 14.15625 C-10.29398437 15.19265625 -10.29398437 15.19265625 -11.375 16.25 C-12.02210938 16.87390625 -12.66921875 17.4978125 -13.3359375 18.140625 C-15.08584738 19.93176622 -15.08584738 19.93176622 -16.09375 22.1875 C-17 24 -17 24 -19.125 24.75 C-20.053125 24.87375 -20.053125 24.87375 -21 25 C-20.505 23.515 -20.505 23.515 -20 22 C-19.34 22 -18.68 22 -18 22 C-17.71125 21.2575 -17.4225 20.515 -17.125 19.75 C-16.568125 18.38875 -16.568125 18.38875 -16 17 C-15.71125 16.2575 -15.4225 15.515 -15.125 14.75 C-13.65241865 12.4593179 -12.56039152 12.64009788 -10 12 C-8.71563266 10.0162233 -8.71563266 10.0162233 -8 8 C-7.34 8.33 -6.68 8.66 -6 9 C-5.896875 8.360625 -5.79375 7.72125 -5.6875 7.0625 C-5.460625 6.381875 -5.23375 5.70125 -5 5 C-4.01 4.67 -3.02 4.34 -2 4 C-2 3.34 -2 2.68 -2 2 C-1.34 2 -0.68 2 0 2 C0 1.34 0 0.68 0 0 Z " fill="#363E7B" transform="translate(453,566)"/>
<path d="M0 0 C1.24090897 0.02009628 2.48181793 0.04019257 3.7603302 0.06089783 C5.10413851 0.08808971 6.44794441 0.11540062 7.79174805 0.14282227 C9.17464896 0.16714423 10.55755838 0.19098673 11.94047546 0.21437073 C15.56879416 0.2770052 19.19696096 0.34612948 22.82513428 0.41662598 C26.53203452 0.48749662 30.2390419 0.55220124 33.94604492 0.61743164 C41.21113742 0.74617769 48.47608048 0.88178302 55.7409668 1.02172852 C55.7409668 1.35172852 55.7409668 1.68172852 55.7409668 2.02172852 C47.30075867 2.19857417 38.86043753 2.36453735 30.41974831 2.51650429 C26.50064977 2.58740841 22.58169879 2.66209848 18.6628418 2.74536133 C14.88287246 2.82553527 11.10283778 2.89586815 7.32255173 2.95930099 C5.87835284 2.98527966 4.4342139 3.01483972 2.9901619 3.04799271 C0.97190387 3.09372428 -1.04665202 3.12569011 -3.06518555 3.15698242 C-4.21546234 3.17918854 -5.36573914 3.20139465 -6.5508728 3.22427368 C-9.2590332 3.02172852 -9.2590332 3.02172852 -11.2590332 1.02172852 C-7.42490159 0.11512311 -3.93457556 -0.07212053 0 0 Z " fill="#343D80" transform="translate(256.259033203125,204.978271484375)"/>
<path d="M0 0 C0.66 0 1.32 0 2 0 C4.44575222 7.97781081 5.30056066 15.3807073 5.3125 23.6875 C5.31765625 24.57276367 5.3228125 25.45802734 5.328125 26.37011719 C5.25890208 32.74109792 5.25890208 32.74109792 3 35 C3 27.08 3 19.16 3 11 C2.34 11 1.68 11 1 11 C-0.28317892 7.15046324 -0.06643637 4.05261865 0 0 Z " fill="#4F5686" transform="translate(586,432)"/>
<path d="M0 0 C0.99 0 1.98 0 3 0 C3.64633275 1.77065111 4.2920483 3.54152753 4.9375 5.3125 C5.29714844 6.29863281 5.65679687 7.28476562 6.02734375 8.30078125 C6.70885965 10.1920563 7.3642811 12.09284329 8 14 C8.928125 14.2165625 8.928125 14.2165625 9.875 14.4375 C12.73860516 15.19551313 13.49513098 16.51696612 15 19 C15 19.66 15 20.32 15 21 C15.639375 21.12375 16.27875 21.2475 16.9375 21.375 C17.9584375 21.684375 17.9584375 21.684375 19 22 C19.33 22.66 19.66 23.32 20 24 C22.01669827 25.13350534 22.01669827 25.13350534 24 26 C22.30078125 26.7421875 22.30078125 26.7421875 20 27 C11.66257868 21.44171912 3.77762117 12.33294642 0 3 C0 2.01 0 1.02 0 0 Z " fill="#343B74" transform="translate(209,783)"/>
<path d="M0 0 C0.99 0.33 1.98 0.66 3 1 C-2.76680999 8.07744862 -14.25420725 12.34573715 -23 14 C-25.3515625 13.09765625 -25.3515625 13.09765625 -27 12 C-25.02 12 -23.04 12 -21 12 C-20.67 11.01 -20.34 10.02 -20 9 C-17.63671875 8.15625 -17.63671875 8.15625 -14.6875 7.5 C-10.47345438 6.55484016 -10.47345438 6.55484016 -6.83203125 4.34375 C-6.22746094 3.9003125 -5.62289062 3.456875 -5 3 C-4.01 3.33 -3.02 3.66 -2 4 C-2 3.34 -2 2.68 -2 2 C-1.34 2 -0.68 2 0 2 C0 1.34 0 0.68 0 0 Z " fill="#3B437F" transform="translate(560,515)"/>
<path d="M0 0 C5.25116791 0.65527394 6.96825441 2.64139581 10.2109375 6.60546875 C16.48311904 15.00033181 16.48311904 15.00033181 18 19 C17.15234375 21.296875 17.15234375 21.296875 16 23 C15.76925781 22.33613281 15.53851562 21.67226562 15.30078125 20.98828125 C13.24896568 15.43297033 11.41173838 11.92154523 7 8 C7 7.34 7 6.68 7 6 C5.68 5.34 4.36 4.68 3 4 C3 3.34 3 2.68 3 2 C2.01 1.67 1.02 1.34 0 1 C0 0.67 0 0.34 0 0 Z " fill="#3B4477" transform="translate(797,218)"/>
<path d="M0 0 C4.53562362 1.15613935 8.01502548 2.60901529 12 5 C13.2375 5.33 14.475 5.66 15.75 6 C16.8225 6.33 17.895 6.66 19 7 C19.33 7.99 19.66 8.98 20 10 C21.86022072 11.23277127 21.86022072 11.23277127 24.0625 12.1875 C24.79597656 12.53167969 25.52945313 12.87585938 26.28515625 13.23046875 C26.85105469 13.48441406 27.41695312 13.73835938 28 14 C27.01 15.485 27.01 15.485 26 17 C25.46375 16.59910156 24.9275 16.19820313 24.375 15.78515625 C16.62397974 10.16311689 8.38524278 5.58795542 0 1 C0 0.67 0 0.34 0 0 Z " fill="#393D76" transform="translate(579,335)"/>
<path d="M0 0 C1.2065625 0.0309375 1.2065625 0.0309375 2.4375 0.0625 C2.7675 0.7225 3.0975 1.3825 3.4375 2.0625 C0.00319589 2.92988365 -3.43534451 3.77910951 -6.875 4.625 C-7.85146484 4.87185547 -8.82792969 5.11871094 -9.83398438 5.37304688 C-10.77177734 5.60185547 -11.70957031 5.83066406 -12.67578125 6.06640625 C-13.53985596 6.28111572 -14.40393066 6.4958252 -15.29418945 6.71704102 C-17.5625 7.0625 -17.5625 7.0625 -20.5625 6.0625 C-18.62620449 3.43774387 -17.50693561 3.05086416 -14.2421875 2.3671875 C-12.98664062 2.22539062 -11.73109375 2.08359375 -10.4375 1.9375 C-6.72414108 1.50465448 -3.41606272 0.0833186 0 0 Z " fill="#3E4380" transform="translate(528.5625,415.9375)"/>
<path d="M0 0 C2.55012161 0.50815696 4.93630956 0.73074261 7.53051758 0.84790039 C8.85986328 0.91074219 8.85986328 0.91074219 10.21606445 0.97485352 C11.58408203 1.03382813 11.58408203 1.03382813 12.97973633 1.09399414 C14.37675781 1.15876953 14.37675781 1.15876953 15.80200195 1.22485352 C18.09028087 1.33046639 20.37866005 1.43257166 22.66723633 1.53149414 C22.66723633 1.86149414 22.66723633 2.19149414 22.66723633 2.53149414 C21.88598389 2.52512939 21.10473145 2.51876465 20.29980469 2.51220703 C16.73382639 2.50348179 13.17041507 2.54825686 9.60473633 2.59399414 C8.37561523 2.58303711 7.14649414 2.57208008 5.88012695 2.56079102 C-2.22051185 2.67639717 -2.22051185 2.67639717 -8.70385742 7.09008789 C-10.2452471 8.92527078 -10.2452471 8.92527078 -11.33276367 10.53149414 C-11.33276367 7.53149414 -11.33276367 7.53149414 -9.95776367 6.09399414 C-9.42151367 5.57836914 -8.88526367 5.06274414 -8.33276367 4.53149414 C-7.86870117 3.47961914 -7.86870117 3.47961914 -7.39526367 2.40649414 C-6.33276367 0.53149414 -6.33276367 0.53149414 -4.52026367 -0.28100586 C-2.33276367 -0.46850586 -2.33276367 -0.46850586 0 0 Z " fill="#2E3671" transform="translate(494.332763671875,528.468505859375)"/>
<path d="M0 0 C0 0.66 0 1.32 0 2 C-6.75 6 -6.75 6 -9 6 C-9.3403125 6.86625 -9.3403125 6.86625 -9.6875 7.75 C-11.38050483 10.652294 -13.18146859 12.18808695 -16 14 C-18.1640625 13.60546875 -18.1640625 13.60546875 -20 13 C-6.23076923 0 -6.23076923 0 0 0 Z " fill="#3E477D" transform="translate(239,209)"/>
<path d="M0 0 C0.66 0.33 1.32 0.66 2 1 C0.28087301 7.65030706 -2.15360722 12.12223898 -7 17 C-7.99 16.67 -8.98 16.34 -10 16 C-9.52949219 15.26394531 -9.05898438 14.52789063 -8.57421875 13.76953125 C-7.95160156 12.79371094 -7.32898438 11.81789063 -6.6875 10.8125 C-6.07261719 9.84957031 -5.45773437 8.88664063 -4.82421875 7.89453125 C-3.17876897 5.28365697 -1.57630335 2.6530398 0 0 Z " fill="#3A4180" transform="translate(636,523)"/>
<path d="M0 0 C7.65832917 0.29455112 13.34261178 3.37172342 20 7 C20 7.99 20 8.98 20 10 C18.02 9.34 16.04 8.68 14 8 C14 7.34 14 6.68 14 6 C12.824375 5.814375 12.824375 5.814375 11.625 5.625 C9 5 9 5 7 3 C4.67724823 2.59952556 2.34260643 2.2602896 0 2 C0 1.34 0 0.68 0 0 Z " fill="#3A417A" transform="translate(776,207)"/>
<path d="M0 0 C0.66 0.99 1.32 1.98 2 3 C0.77801556 4.58888299 -0.45294475 6.17086464 -1.6875 7.75 C-2.37199219 8.63171875 -3.05648437 9.5134375 -3.76171875 10.421875 C-5.98461943 12.98228416 -8.29250406 14.97056346 -11 17 C-11 16.01 -11 15.02 -11 14 C-10.34 14 -9.68 14 -9 14 C-8.896875 13.401875 -8.79375 12.80375 -8.6875 12.1875 C-7.90175967 9.68741714 -7.03081147 8.62464918 -5 7 C-4.34 7 -3.68 7 -3 7 C-2.87625 6.21625 -2.7525 5.4325 -2.625 4.625 C-2 2 -2 2 0 0 Z " fill="#383F7C" transform="translate(578,496)"/>
<path d="M0 0 C1.32 0.33 2.64 0.66 4 1 C-0.11619836 5.91935902 -4.40410362 10.52647956 -9 15 C-9.33 14.01 -9.66 13.02 -10 12 C-9.360625 11.7525 -8.72125 11.505 -8.0625 11.25 C-7.0415625 10.63125 -7.0415625 10.63125 -6 10 C-5.855625 9.34 -5.71125 8.68 -5.5625 8 C-5.376875 7.34 -5.19125 6.68 -5 6 C-2.4375 4.75 -2.4375 4.75 0 4 C0 2.68 0 1.36 0 0 Z " fill="#2E356F" transform="translate(432,501)"/>
<path d="M0 0 C0.66 0 1.32 0 2 0 C4.61177122 8.0918269 6.71240023 15.41161947 6 24 C3.82585124 20.23931026 2.89756093 16.18113804 1.875 12 C1.69324219 11.2884375 1.51148438 10.576875 1.32421875 9.84375 C0.47681609 6.42865356 0 3.54154278 0 0 Z " fill="#383E78" transform="translate(647,409)"/>
<path d="M0 0 C2.37706418 3.66539668 2.05094317 6.49056835 1.625 10.75 C1.51414062 11.92046875 1.40328125 13.0909375 1.2890625 14.296875 C1.19367187 15.18890625 1.09828125 16.0809375 1 17 C0.01 17.33 -0.98 17.66 -2 18 C-1.03644647 5.33029613 -1.03644647 5.33029613 0 0 Z " fill="#474F86" transform="translate(539,486)"/>
<path d="M0 0 C0.66 0.99 1.32 1.98 2 3 C1.2884375 3.6496875 1.2884375 3.6496875 0.5625 4.3125 C-1.23686957 6.02309613 -1.23686957 6.02309613 -2 9 C-4.60242414 10.64820195 -5.86248779 11 -9 11 C-7.59155282 7.78475695 -5.89655214 5.67816132 -3.375 3.25 C-2.74335938 2.63640625 -2.11171875 2.0228125 -1.4609375 1.390625 C-0.73777344 0.70226562 -0.73777344 0.70226562 0 0 Z " fill="#3F4581" transform="translate(454,549)"/>
<path d="M0 0 C0.99 0.33 1.98 0.66 3 1 C-3.15034169 8.48291572 -3.15034169 8.48291572 -7 11 C-7.33 9.68 -7.66 8.36 -8 7 C-2.25 2 -2.25 2 0 2 C0 1.34 0 0.68 0 0 Z " fill="#3B4380" transform="translate(475,543)"/>
<path d="M0 0 C3 1 3 1 4.6875 3.875 C6 7 6 7 6 10 C6.66 10 7.32 10 8 10 C8 10.99 8 11.98 8 13 C8.66 13.33 9.32 13.66 10 14 C10.625 17.0625 10.625 17.0625 11 20 C10.34 20 9.68 20 9 20 C6.03 13.4 3.06 6.8 0 0 Z " fill="#3B4078" transform="translate(636,386)"/>
<path d="M0 0 C0 4.88436321 -2.82377408 8.41727228 -6 12 C-8.45711343 13.29476636 -10.20756872 13.60905962 -13 14 C-8.88380164 9.08064098 -4.59589638 4.47352044 0 0 Z " fill="#434981" transform="translate(481,521)"/>
<path d="M0 0 C0.66 0.99 1.32 1.98 2 3 C1.01 3.495 1.01 3.495 0 4 C-0.72159424 5.64363134 -1.39351421 7.31050386 -2 9 C-4.31 9.33 -6.62 9.66 -9 10 C-8.06409496 8.8944811 -7.12620142 7.79064547 -6.1875 6.6875 C-5.66542969 6.07261719 -5.14335937 5.45773437 -4.60546875 4.82421875 C-3.12827531 3.14575321 -1.59960869 1.56117966 0 0 Z " fill="#434A82" transform="translate(411,509)"/>
<path d="M0 0 C1.32 0.66 2.64 1.32 4 2 C-6.37357631 8.51936219 -6.37357631 8.51936219 -12 10 C-12 9.34 -12 8.68 -12 8 C-4.71428571 3.57142857 -4.71428571 3.57142857 0 3 C0 2.01 0 1.02 0 0 Z " fill="#3E467F" transform="translate(794,806)"/>
<path d="M0 0 C0.99 0 1.98 0 3 0 C1.53967505 5.31027254 -0.98320986 9.46330032 -4 14 C-4.66 13.67 -5.32 13.34 -6 13 C-5.34 11.35 -4.68 9.7 -4 8 C-3.34 8 -2.68 8 -2 8 C-1.34 5.36 -0.68 2.72 0 0 Z " fill="#3E457D" transform="translate(812,784)"/>
<path d="M0 0 C1.28564793 4.95444814 1.75269474 7.6702393 -0.875 12.3125 C-1.926875 13.6428125 -1.926875 13.6428125 -3 15 C-3.66 15 -4.32 15 -5 15 C-4.37321829 11.33827525 -3.35548154 8.1181005 -1.9375 4.6875 C-1.39416016 3.36298828 -1.39416016 3.36298828 -0.83984375 2.01171875 C-0.56269531 1.34785156 -0.28554688 0.68398438 0 0 Z " fill="#3A437C" transform="translate(644,506)"/>
<path d="M0 0 C4.83459583 0.60432448 9.41692128 2.41239757 14 4 C13.67 4.66 13.34 5.32 13 6 C11.22739369 5.54857225 9.4569632 5.08859477 7.6875 4.625 C6.20830078 4.24214844 6.20830078 4.24214844 4.69921875 3.8515625 C2 3 2 3 -1 1 C-0.67 0.67 -0.34 0.34 0 0 Z " fill="#434880" transform="translate(561,328)"/>
<path d="M0 0 C1.32365626 3.97096878 0.24318252 6.06325535 -1 10 C-1.34135927 11.33130115 -1.67925956 12.66358148 -2 14 C-2.99 14 -3.98 14 -5 14 C-4.53411505 8.29290936 -3.06242216 4.84060277 0 0 Z " fill="#3F467F" transform="translate(213,230)"/>
<path d="M0 0 C0.99 0 1.98 0 3 0 C1.61811547 3.21043882 0.07578097 5.04936365 -2.625 7.25 C-3.57246094 8.03117188 -3.57246094 8.03117188 -4.5390625 8.828125 C-5.02117187 9.21484375 -5.50328125 9.6015625 -6 10 C-5.67 8.02 -5.34 6.04 -5 4 C-4.0409375 3.8453125 -4.0409375 3.8453125 -3.0625 3.6875 C-2.381875 3.460625 -1.70125 3.23375 -1 3 C-0.67 2.01 -0.34 1.02 0 0 Z " fill="#3C437D" transform="translate(416,519)"/>
<path d="M0 0 C2.24024365 2.24024365 2.74778281 2.88932136 3 6 C2.17747461 8.45175837 1.12505813 10.65987909 0 13 C-0.66 13 -1.32 13 -2 13 C-1.48041715 8.62065881 -0.94324258 4.31196609 0 0 Z " fill="#3B417D" transform="translate(552,415)"/>
<path d="M0 0 C0 0.66 0 1.32 0 2 C-4.1196377 3.29243536 -7.66831683 4.26252625 -12 4 C-12 3.01 -12 2.02 -12 1 C-7.93631321 0.22596442 -4.13574827 -0.0984702 0 0 Z " fill="#343C79" transform="translate(552,411)"/>
<path d="M0 0 C4.63720719 3.27530896 8.68542782 6.30435607 12 11 C11.01 11.495 11.01 11.495 10 12 C8.33333333 10.33333333 6.66666667 8.66666667 5 7 C4.071875 6.113125 3.14375 5.22625 2.1875 4.3125 C0 2 0 2 0 0 Z " fill="#484F7F" transform="translate(562,393)"/>
<path d="M0 0 C0.671875 1.74609375 0.671875 1.74609375 1 4 C-0.109375 6.03515625 -0.109375 6.03515625 -1.75 8.0625 C-2.28109375 8.73410156 -2.8121875 9.40570312 -3.359375 10.09765625 C-4.84079484 11.81539782 -6.36998737 13.42399381 -8 15 C-7.29228053 11.31985875 -5.87103847 8.23833582 -4 5 C-3.01 4.67 -2.02 4.34 -1 4 C-0.26676204 1.98491642 -0.26676204 1.98491642 0 0 Z " fill="#38417A" transform="translate(390,632)"/>
<path d="M0 0 C0.99 0 1.98 0 3 0 C1.61811547 3.21043882 0.07578097 5.04936365 -2.625 7.25 C-3.57246094 8.03117188 -3.57246094 8.03117188 -4.5390625 8.828125 C-5.02117187 9.21484375 -5.50328125 9.6015625 -6 10 C-5.67 8.35 -5.34 6.7 -5 5 C-4.01 4.67 -3.02 4.34 -2 4 C-2 3.34 -2 2.68 -2 2 C-1.34 2 -0.68 2 0 2 C0 1.34 0 0.68 0 0 Z " fill="#444A82" transform="translate(453,566)"/>
<path d="M0 0 C4.82675589 2.41337795 7.69984002 5.86062408 11 10 C7.04119531 10 5.92844812 8.5623921 3 6 C2.401875 5.484375 1.80375 4.96875 1.1875 4.4375 C0 3 0 3 0 0 Z " fill="#43487B" transform="translate(472,444)"/>
<path d="M0 0 C0.66 0 1.32 0 2 0 C4 7.625 4 7.625 4 11 C3.01 11 2.02 11 1 11 C-0.28317892 7.15046324 -0.06643637 4.05261865 0 0 Z " fill="#3F4781" transform="translate(586,432)"/>
<path d="M0 0 C0.66 0.33 1.32 0.66 2 1 C0.50164772 5.66154042 -2.88463591 6.86610751 -7 9 C-5.64978174 4.58110387 -3.73884332 2.65654657 0 0 Z " fill="#333B77" transform="translate(221,222)"/>
<path d="M0 0 C0.556875 0.70125 1.11375 1.4025 1.6875 2.125 C2.89341806 3.62424948 4.1057906 5.11987603 5.37890625 6.5625 C9 10.68910256 9 10.68910256 9 14 C8.34 14 7.68 14 7 14 C5.2734375 11.953125 5.2734375 11.953125 3.375 9.25 C2.74335937 8.36828125 2.11171875 7.4865625 1.4609375 6.578125 C0 4 0 4 0 0 Z " fill="#3D4378" transform="translate(627,370)"/>
<path d="M0 0 C3.16524451 0.33913334 3.97600118 0.97247195 6.125 3.4375 C6.74375 4.283125 7.3625 5.12875 8 6 C8.66 6.66 9.32 7.32 10 8 C9.01 8.66 8.02 9.32 7 10 C5.83043409 8.52312468 4.66441854 7.04343707 3.5 5.5625 C2.8503125 4.73878906 2.200625 3.91507812 1.53125 3.06640625 C0 1 0 1 0 0 Z " fill="#E8EEFA" transform="translate(571,400)"/>
<path d="M0 0 C4.12751449 0.60698743 7.3321148 2.03810791 11 4 C10.34 4.66 9.68 5.32 9 6 C6.03 5.01 3.06 4.02 0 3 C0 2.01 0 1.02 0 0 Z " fill="#384077" transform="translate(546,385)"/>
<path d="M0 0 C0.8125 1.6875 0.8125 1.6875 1 4 C-1.3125 6.75 -1.3125 6.75 -4 9 C-4.66 9 -5.32 9 -6 9 C-5.52797514 4.75177626 -3.03344482 2.80010291 0 0 Z " fill="#3E4682" transform="translate(402,619)"/>
<path d="M0 0 C0 4.16751495 -2.23872302 6.14170518 -5 9 C-6.63072616 10.37705764 -8.2866438 11.72722111 -10 13 C-9.48223379 8.89552608 -7.35372556 7.04300477 -4.4375 4.25 C-3.61121094 3.45078125 -2.78492188 2.6515625 -1.93359375 1.828125 C-1.29550781 1.22484375 -0.65742188 0.6215625 0 0 Z " fill="#323873" transform="translate(422,498)"/>
<path d="M0 0 C0.33 0 0.66 0 1 0 C1.33 4.62 1.66 9.24 2 14 C1.01 14.33 0.02 14.66 -1 15 C-1.09038099 9.84828377 -0.84681133 5.08086796 0 0 Z " fill="#444985" transform="translate(548,435)"/>
<path d="M0 0 C3.58806317 3.38872633 6.45684799 6.76141332 9 11 C9 11.66 9 12.32 9 13 C5.21429586 11.73809862 4.78168429 10.45144185 2.8125 7.0625 C2.28269531 6.16660156 1.75289062 5.27070313 1.20703125 4.34765625 C0 2 0 2 0 0 Z " fill="#383F74" transform="translate(573,404)"/>
<path d="M0 0 C1.1171875 1.734375 1.1171875 1.734375 2 4 C1.3203125 6.140625 1.3203125 6.140625 0.125 8.25 C-0.26429688 8.95640625 -0.65359375 9.6628125 -1.0546875 10.390625 C-1.36664062 10.92171875 -1.67859375 11.4528125 -2 12 C-2.33 12 -2.66 12 -3 12 C-3.34833144 7.12335991 -2.41685712 4.22949995 0 0 Z " fill="#414680" transform="translate(583,485)"/>
<path d="M0 0 C0.33 0.66 0.66 1.32 1 2 C-0.23697917 3.46484375 -1.47395833 4.9296875 -2.7109375 6.39453125 C-3.89201099 7.8655046 -4.95358529 9.43037794 -6 11 C-6.66 11 -7.32 11 -8 11 C-7.43040847 7.37386801 -6.07625466 5.74482259 -3.4375 3.25 C-2.79683594 2.63640625 -2.15617187 2.0228125 -1.49609375 1.390625 C-1.00238281 0.93171875 -0.50867188 0.4728125 0 0 Z " fill="#384179" transform="translate(392,529)"/>
<path d="M0 0 C2.33528415 0.17298401 3.69177582 0.70225369 5.37890625 2.33203125 C9 6.57211538 9 6.57211538 9 9 C9.99 9.33 10.98 9.66 12 10 C11.34 10.66 10.68 11.32 10 12 C8.33032474 10.19019128 6.66417692 8.3773524 5 6.5625 C4.28457031 5.7880957 4.28457031 5.7880957 3.5546875 4.99804688 C0 1.11328125 0 1.11328125 0 0 Z " fill="#3B4173" transform="translate(614,358)"/>
<path d="M0 0 C3.67420866 0.30618405 4.78135513 0.75771784 7.3125 3.5625 C8.1478125 4.7690625 8.1478125 4.7690625 9 6 C8.34 6.66 7.68 7.32 7 8 C7 7.34 7 6.68 7 6 C5.68 5.34 4.36 4.68 3 4 C3 3.34 3 2.68 3 2 C2.01 1.67 1.02 1.34 0 1 C0 0.67 0 0.34 0 0 Z " fill="#434B7F" transform="translate(797,218)"/>
<path d="M0 0 C0.33 0 0.66 0 1 0 C1.4171331 3.54563138 0.97671748 5.04323897 -0.75 8.25 C-3 11 -3 11 -5.25 11.875 C-5.8275 11.91625 -6.405 11.9575 -7 12 C-6.67 11.01 -6.34 10.02 -6 9 C-5.34 9 -4.68 9 -4 9 C-3.71125 8.2575 -3.4225 7.515 -3.125 6.75 C-2.17697356 4.43260203 -1.15154089 2.22082885 0 0 Z " fill="#2E367D" transform="translate(439,579)"/>
<path d="M0 0 C0.33 0.66 0.66 1.32 1 2 C-0.0625 3.9375 -0.0625 3.9375 -2 6 C-5.6875 6.75 -5.6875 6.75 -9 7 C-6.03716687 4.61327331 -3.05729491 2.2646629 0 0 Z " fill="#444B81" transform="translate(604,559)"/>
<path d="M0 0 C0 4.50303524 -2.72456307 6.67901175 -5.75 9.8125 C-6.1625 10.204375 -6.575 10.59625 -7 11 C-7.33 10.01 -7.66 9.02 -8 8 C-5.36 5.36 -2.72 2.72 0 0 Z " fill="#41487F" transform="translate(412,593)"/>
<path d="M0 0 C2.31 0 4.62 0 7 0 C7.33 0.99 7.66 1.98 8 3 C8.66 3.66 9.32 4.32 10 5 C5.75354935 5 3.61475228 3.18249194 0 1 C0 0.67 0 0.34 0 0 Z " fill="#E6ECF7" transform="translate(789,210)"/>
<path d="M0 0 C2.02045442 0.60183749 4.02111039 1.27306096 6 2 C6.33 2.66 6.66 3.32 7 4 C9.01669827 5.13350534 9.01669827 5.13350534 11 6 C9.234375 6.6796875 9.234375 6.6796875 7 7 C5.078125 5.8203125 5.078125 5.8203125 3.25 4.125 C2.63640625 3.57070313 2.0228125 3.01640625 1.390625 2.4453125 C0 1 0 1 0 0 Z " fill="#3D447D" transform="translate(222,803)"/>
<path d="M0 0 C0.66 0 1.32 0 2 0 C0.61811547 3.21043882 -0.92421903 5.04936365 -3.625 7.25 C-4.57246094 8.03117188 -4.57246094 8.03117188 -5.5390625 8.828125 C-6.02117187 9.21484375 -6.50328125 9.6015625 -7 10 C-5.66666667 7.33333333 -4.33333333 4.66666667 -3 2 C-2.01 2 -1.02 2 0 2 C0 1.34 0 0.68 0 0 Z " fill="#313A75" transform="translate(415,606)"/>
<path d="M0 0 C0.99 0.66 1.98 1.32 3 2 C2.01 2.33 1.02 2.66 0 3 C-1.20882096 5.00016466 -1.20882096 5.00016466 -2 7 C-2.99 6.67 -3.98 6.34 -5 6 C-3.35 4.02 -1.7 2.04 0 0 Z " fill="#3A407F" transform="translate(609,555)"/>
<path d="M0 0 C0.33 0.66 0.66 1.32 1 2 C-2.16952847 5.26008643 -5.39937989 8.22237877 -9 11 C-7.59155282 7.78475695 -5.89655214 5.67816132 -3.375 3.25 C-2.74335938 2.63640625 -2.11171875 2.0228125 -1.4609375 1.390625 C-0.73777344 0.70226562 -0.73777344 0.70226562 0 0 Z " fill="#2E366F" transform="translate(491,511)"/>
<path d="M0 0 C0 3 0 3 -1.53125 4.60546875 C-2.1809375 5.12753906 -2.830625 5.64960938 -3.5 6.1875 C-4.1496875 6.71730469 -4.799375 7.24710937 -5.46875 7.79296875 C-5.9740625 8.19128906 -6.479375 8.58960938 -7 9 C-7 7.68 -7 6.36 -7 5 C-4.0625 2.8125 -4.0625 2.8125 -1 1 C-0.67 0.67 -0.34 0.34 0 0 Z " fill="#303671" transform="translate(456,479)"/>
<path d="M0 0 C0.99 0 1.98 0 3 0 C3.66 2.64 4.32 5.28 5 8 C4.01 8.495 4.01 8.495 3 9 C0 3.375 0 3.375 0 0 Z " fill="#3B437C" transform="translate(209,783)"/>
<path d="M0 0 C0.99 0.33 1.98 0.66 3 1 C2.67 3.97 2.34 6.94 2 10 C0 8 0 8 -0.1953125 6.0546875 C-0.13020833 4.03645833 -0.06510417 2.01822917 0 0 Z " fill="#3F4986" transform="translate(370,670)"/>
<path d="M0 0 C0.66 0 1.32 0 2 0 C1.65120368 3.25543229 0.97866739 4.01873107 -1.5625 6.25 C-2.366875 6.8275 -3.17125 7.405 -4 8 C-3.67 6.35 -3.34 4.7 -3 3 C-2.01 3 -1.02 3 0 3 C0 2.01 0 1.02 0 0 Z " fill="#484F81" transform="translate(447,487)"/>
<path d="M0 0 C0.99 0.33 1.98 0.66 3 1 C3 2.65 3 4.3 3 6 C2.01 6.495 2.01 6.495 1 7 C0.34 6.67 -0.32 6.34 -1 6 C-0.67 4.02 -0.34 2.04 0 0 Z " fill="#3C4382" transform="translate(650,486)"/>
<path d="M0 0 C-0.39803561 2.88575819 -0.79009069 3.82189513 -3.0625 5.75 C-3.701875 6.1625 -4.34125 6.575 -5 7 C-5.33 6.01 -5.66 5.02 -6 4 C-2.25 0 -2.25 0 0 0 Z " fill="#474D84" transform="translate(434,487)"/>
<path d="M0 0 C-2.91708924 1.98362069 -4.12380904 1.9876191 -7.75 1.625 C-8.8225 1.41875 -9.895 1.2125 -11 1 C-11 0.67 -11 0.34 -11 0 C-7.01803543 -1.05404945 -4.01804691 -0.84098656 0 0 Z " fill="#454C7F" transform="translate(256,206)"/>
<path d="M0 0 C0.66 0 1.32 0 2 0 C1.67 2.97 1.34 5.94 1 9 C-1 8 -1 8 -1.75 6.1875 C-2.05694702 3.50171361 -1.38111722 2.2747813 0 0 Z " fill="#3B4480" transform="translate(370,584)"/>
<path d="M0 0 C-0.3125 1.9375 -0.3125 1.9375 -1 4 C-1.99 4.33 -2.98 4.66 -4 5 C-4.66 4.67 -5.32 4.34 -6 4 C-6 3.34 -6 2.68 -6 2 C-2.25 0 -2.25 0 0 0 Z " fill="#363E7F" transform="translate(592,568)"/>
<path d="M0 0 C0 0.66 0 1.32 0 2 C-2.90600261 3.25664978 -4.79604584 4 -8 4 C-8 3.34 -8 2.68 -8 2 C-4.91190305 0.23537317 -3.76687864 0 0 0 Z " fill="#323977" transform="translate(551,522)"/>
<path d="M0 0 C1.32 0.33 2.64 0.66 4 1 C2.68 2.65 1.36 4.3 0 6 C-1.32 5.67 -2.64 5.34 -4 5 C-2.68 4.67 -1.36 4.34 0 4 C0 2.68 0 1.36 0 0 Z " fill="#363D7A" transform="translate(432,501)"/>
<path d="M0 0 C0.99 0 1.98 0 3 0 C1.25 4.875 1.25 4.875 -1 6 C-1.66 5.67 -2.32 5.34 -3 5 C-3 4.34 -3 3.68 -3 3 C-2.01 3 -1.02 3 0 3 C0 2.01 0 1.02 0 0 Z " fill="#3D457C" transform="translate(802,799)"/>
<path d="M0 0 C0.66 0 1.32 0 2 0 C1.6875 2.375 1.6875 2.375 1 5 C0.01 5.66 -0.98 6.32 -2 7 C-1.125 1.125 -1.125 1.125 0 0 Z " fill="#414783" transform="translate(465,467)"/>
<path d="M0 0 C3.79303725 1.00193437 6.71536341 1.81024227 10 4 C9.67 4.66 9.34 5.32 9 6 C6.03 4.35 3.06 2.7 0 1 C0 0.67 0 0.34 0 0 Z " fill="#404679" transform="translate(579,335)"/>
<path d="M0 0 C0.66 0.66 1.32 1.32 2 2 C-1.465 4.97 -1.465 4.97 -5 8 C-5.66 7.67 -6.32 7.34 -7 7 C-4.69 4.69 -2.38 2.38 0 0 Z " fill="#D4DCF8" transform="translate(470,552)"/>
<path d="M0 0 C1.32 0.66 2.64 1.32 4 2 C3.67 3.32 3.34 4.64 3 6 C1.68 4.68 0.36 3.36 -1 2 C-0.67 1.34 -0.34 0.68 0 0 Z " fill="#D9E3F6" transform="translate(523,488)"/>
</svg>
